<svg xmlns="http://www.w3.org/2000/svg" viewBox="0 0 64 64">
  <rect width="64" height="64" rx="14" fill="#2b0a12"/>
  <rect x="3.5" y="3.5" width="57" height="57" rx="11" fill="none" stroke="#b8963f" stroke-width="1.4" opacity="0.7"/>
  <path d="M32 52 C32 40, 32 30, 32 16" stroke="#d4bc8b" stroke-width="2" stroke-linecap="round" fill="none"/>
  <path d="M32 34 C25 31, 21 25, 21 18 C27 21, 31 27, 32 34" fill="#d4bc8b"/>
  <path d="M32 34 C39 31, 43 25, 43 18 C37 21, 33 27, 32 34" fill="#b8963f"/>
  <path d="M32 45 C27 43, 24 39, 24 34 C28 36, 31 40, 32 45" fill="#b8963f"/>
  <path d="M32 45 C37 43, 40 39, 40 34 C36 36, 33 40, 32 45" fill="#d4bc8b"/>
</svg>
